<?xml version="1.0" encoding="UTF-8"?>
<svg width="245" height="239" viewBox="0 0 245 239" fill="none" xmlns="http://www.w3.org/2000/svg">
<path d="M0 0L245 0 L245 245L0 245L0 0Z" fill="#ffffff"  />
<path d="M8.29545 205.364V217H6.88636V206.841H6.81818L3.97727 208.727V207.295L6.88636 205.364H8.29545ZM15.5057 217.159C15.0284 217.152 14.5511 217.061 14.0739 216.886C13.5966 216.712 13.161 216.419 12.767 216.006C12.3731 215.589 12.0568 215.027 11.8182 214.318C11.5795 213.606 11.4602 212.712 11.4602 211.636C11.4602 210.606 11.5568 209.693 11.75 208.898C11.9432 208.098 12.2235 207.426 12.5909 206.881C12.9583 206.331 13.4015 205.915 13.9205 205.631C14.4432 205.347 15.0322 205.205 15.6875 205.205C16.339 205.205 16.9186 205.335 17.4261 205.597C17.9375 205.854 18.3542 206.214 18.6761 206.676C18.9981 207.138 19.2064 207.67 19.3011 208.273H17.9148C17.786 207.75 17.536 207.316 17.1648 206.972C16.7936 206.627 16.3011 206.455 15.6875 206.455C14.786 206.455 14.0758 206.847 13.5568 207.631C13.0417 208.415 12.7822 209.515 12.7784 210.932H12.8693C13.0814 210.61 13.3333 210.335 13.625 210.108C13.9205 209.877 14.2462 209.699 14.6023 209.574C14.9583 209.449 15.3352 209.386 15.733 209.386C16.3996 209.386 17.0095 209.553 17.5625 209.886C18.1155 210.216 18.5587 210.672 18.892 211.256C19.2254 211.835 19.392 212.5 19.392 213.25C19.392 213.97 19.2311 214.629 18.9091 215.227C18.5871 215.822 18.1345 216.295 17.5511 216.648C16.9716 216.996 16.2898 217.167 15.5057 217.159ZM15.5057 215.909C15.983 215.909 16.411 215.79 16.7898 215.551C17.1723 215.312 17.4735 214.992 17.6932 214.591C17.9167 214.189 18.0284 213.742 18.0284 213.25C18.0284 212.769 17.9205 212.331 17.7045 211.938C17.4924 211.54 17.1989 211.223 16.8239 210.989C16.4527 210.754 16.0284 210.636 15.5511 210.636C15.1913 210.636 14.8561 210.708 14.5455 210.852C14.2348 210.992 13.9621 211.186 13.7273 211.432C13.4962 211.678 13.3144 211.96 13.1818 212.278C13.0492 212.593 12.983 212.924 12.983 213.273C12.983 213.735 13.0909 214.167 13.3068 214.568C13.5265 214.97 13.8258 215.294 14.2045 215.54C14.5871 215.786 15.0208 215.909 15.5057 215.909Z" fill="#6C6C6C"/>
<path d="M227.136 217.159C226.386 217.159 225.718 217.03 225.131 216.773C224.547 216.515 224.083 216.157 223.739 215.699C223.398 215.237 223.212 214.701 223.182 214.091H224.614C224.644 214.466 224.773 214.79 225 215.062C225.227 215.331 225.525 215.54 225.892 215.688C226.259 215.835 226.667 215.909 227.114 215.909C227.614 215.909 228.057 215.822 228.443 215.648C228.83 215.473 229.133 215.231 229.352 214.92C229.572 214.61 229.682 214.25 229.682 213.841C229.682 213.413 229.576 213.036 229.364 212.71C229.152 212.381 228.841 212.123 228.432 211.938C228.023 211.752 227.523 211.659 226.932 211.659H226V210.409H226.932C227.394 210.409 227.799 210.326 228.148 210.159C228.5 209.992 228.775 209.758 228.972 209.455C229.172 209.152 229.273 208.795 229.273 208.386C229.273 207.992 229.186 207.65 229.011 207.358C228.837 207.066 228.591 206.839 228.273 206.676C227.958 206.513 227.587 206.432 227.159 206.432C226.758 206.432 226.379 206.506 226.023 206.653C225.67 206.797 225.383 207.008 225.159 207.284C224.936 207.557 224.814 207.886 224.795 208.273H223.432C223.455 207.663 223.638 207.129 223.983 206.67C224.328 206.208 224.778 205.848 225.335 205.591C225.896 205.333 226.511 205.205 227.182 205.205C227.902 205.205 228.519 205.35 229.034 205.642C229.549 205.93 229.945 206.311 230.222 206.784C230.498 207.258 230.636 207.769 230.636 208.318C230.636 208.973 230.464 209.532 230.119 209.994C229.778 210.456 229.314 210.777 228.727 210.955V211.045C229.462 211.167 230.036 211.479 230.449 211.983C230.862 212.483 231.068 213.102 231.068 213.841C231.068 214.473 230.896 215.042 230.551 215.545C230.21 216.045 229.744 216.439 229.153 216.727C228.563 217.015 227.89 217.159 227.136 217.159ZM233.392 217V215.977L237.233 211.773C237.684 211.28 238.055 210.852 238.347 210.489C238.638 210.121 238.854 209.777 238.994 209.455C239.138 209.129 239.21 208.788 239.21 208.432C239.21 208.023 239.112 207.669 238.915 207.369C238.722 207.07 238.456 206.839 238.119 206.676C237.782 206.513 237.403 206.432 236.983 206.432C236.536 206.432 236.146 206.525 235.812 206.71C235.483 206.892 235.227 207.148 235.045 207.477C234.867 207.807 234.778 208.193 234.778 208.636H233.438C233.438 207.955 233.595 207.356 233.909 206.841C234.223 206.326 234.652 205.924 235.193 205.636C235.739 205.348 236.35 205.205 237.028 205.205C237.71 205.205 238.314 205.348 238.841 205.636C239.367 205.924 239.78 206.312 240.08 206.801C240.379 207.29 240.528 207.833 240.528 208.432C240.528 208.86 240.451 209.278 240.295 209.688C240.144 210.093 239.879 210.545 239.5 211.045C239.125 211.542 238.604 212.148 237.938 212.864L235.324 215.659V215.75H240.733V217H233.392Z" fill="#6C6C6C"/>
<path fill-rule="evenodd" clip-rule="evenodd" d="M121.478 0.00417995C121.818 0.00139523 122.159 0 122.5 0C122.841 0 123.182 0.00139523 123.522 0.00417995L123.44 10.0038C123.127 10.0013 122.814 10 122.5 10C122.186 10 121.873 10.0013 121.56 10.0038L121.478 0.00417995ZM142.772 1.67035C143.443 1.78211 144.112 1.89933 144.779 2.02196L142.972 11.8572C142.359 11.7447 141.745 11.637 141.129 11.5344L142.772 1.67035ZM100.221 2.02197C100.888 1.89934 101.557 1.78212 102.228 1.67035L103.871 11.5344C103.255 11.637 102.641 11.7447 102.028 11.8572L100.221 2.02197ZM163.452 7.01402C164.092 7.24106 164.73 7.47327 165.366 7.7106L161.866 17.0782C161.283 16.8604 160.698 16.6473 160.11 16.4389L163.452 7.01402ZM79.6345 7.71061C80.2697 7.47328 80.9075 7.24107 81.5477 7.01403L84.89 16.439C84.3024 16.6473 83.7171 16.8604 83.134 17.0783L79.6345 7.71061ZM182.88 15.8907C183.47 16.2259 184.058 16.5658 184.642 16.9105L179.562 25.5241C179.026 25.2076 178.486 24.8955 177.944 24.5877L182.88 15.8907ZM60.3577 16.9105C60.9421 16.5658 61.5296 16.2259 62.1202 15.8907L67.056 24.5877C66.5137 24.8955 65.9742 25.2076 65.4375 25.5241L60.3577 16.9105ZM200.462 28.0067C200.985 28.4391 201.505 28.8757 202.021 29.3165L195.526 36.9203C195.052 36.5152 194.575 36.1141 194.094 35.7168L200.462 28.0067ZM42.9787 29.3165C43.4948 28.8757 44.0146 28.4391 44.538 28.0067L50.9062 35.7169C50.4253 36.1141 49.9477 36.5152 49.4735 36.9203L42.9787 29.3165ZM215.683 42.9787C216.124 43.4948 216.561 44.0146 216.993 44.538L209.283 50.9062C208.886 50.4253 208.485 49.9477 208.08 49.4735L215.683 42.9787ZM28.0067 44.538C28.4391 44.0146 28.8757 43.4948 29.3165 42.9787L36.9203 49.4736C36.5152 49.9477 36.1141 50.4253 35.7168 50.9063L28.0067 44.538ZM228.09 60.3577C228.434 60.9421 228.774 61.5296 229.109 62.1202L220.412 67.056C220.105 66.5137 219.792 65.9742 219.476 65.4375L228.09 60.3577ZM15.8907 62.1202C16.2259 61.5296 16.5658 60.9421 16.9105 60.3577L25.5241 65.4376C25.2076 65.9742 24.8955 66.5137 24.5877 67.056L15.8907 62.1202ZM237.289 79.6345C237.527 80.2697 237.759 80.9075 237.986 81.5477L228.561 84.89C228.353 84.3024 228.14 83.7171 227.922 83.134L237.289 79.6345ZM7.01402 81.5478C7.24106 80.9075 7.47327 80.2698 7.7106 79.6345L17.0782 83.1341C16.8604 83.7171 16.6473 84.3025 16.4389 84.89L7.01402 81.5478ZM242.978 100.221C243.101 100.888 243.218 101.557 243.33 102.228L233.466 103.871C233.363 103.255 233.255 102.641 233.143 102.028L242.978 100.221ZM1.67035 102.228C1.78211 101.557 1.89933 100.888 2.02196 100.221L11.8572 102.028C11.7447 102.641 11.637 103.255 11.5344 103.871L1.67035 102.228ZM244.996 121.478C244.999 121.818 245 122.159 245 122.5C245 122.841 244.999 123.182 244.996 123.522L234.996 123.44C234.999 123.127 235 122.814 235 122.5C235 122.186 234.999 121.873 234.996 121.56L244.996 121.478ZM0 122.5C0 122.159 0.00139523 121.818 0.00417995 121.478L10.0038 121.56C10.0013 121.873 10 122.186 10 122.5C10 122.814 10.0013 123.127 10.0038 123.44L0.00417995 123.522C0.00139523 123.182 0 122.841 0 122.5ZM243.33 142.772C243.218 143.443 243.101 144.112 242.978 144.779L233.143 142.972C233.255 142.359 233.363 141.745 233.466 141.129L243.33 142.772ZM2.02197 144.779C1.89934 144.112 1.78212 143.443 1.67035 142.772L11.5344 141.129C11.637 141.745 11.7447 142.359 11.8572 142.972L2.02197 144.779ZM237.986 163.452C237.759 164.092 237.527 164.73 237.289 165.366L227.922 161.866C228.14 161.283 228.353 160.698 228.561 160.11L237.986 163.452ZM7.71061 165.366C7.47328 164.73 7.24107 164.092 7.01403 163.452L16.439 160.11C16.6473 160.698 16.8604 161.283 17.0783 161.866L7.71061 165.366ZM16.9105 184.642C16.5658 184.058 16.2259 183.47 15.8907 182.88L24.5877 177.944C24.8955 178.486 25.2076 179.026 25.5241 179.562L16.9105 184.642ZM229.109 182.88C228.774 183.47 228.434 184.058 228.09 184.642L219.476 179.562C219.792 179.026 220.105 178.486 220.412 177.944L229.109 182.88ZM216.993 200.462C216.561 200.985 216.124 201.505 215.683 202.021L208.08 195.526C208.485 195.052 208.886 194.575 209.283 194.094L216.993 200.462ZM29.3165 202.021C28.8757 201.505 28.4391 200.985 28.0067 200.462L35.7169 194.094C36.1141 194.575 36.5152 195.052 36.9203 195.526L29.3165 202.021Z" fill="#1BBEF6"/>
<path d="M15 122C15 181.09 62.91 229 122 229C181.09 229 229 181.09 229 122C229 62.91 181.09 15 122 15C62.91 15 15 62.91 15 122Z" stroke="#339DFA" stroke-opacity="0.05" stroke-width="20"/>
<g filter="url(#filter0_d_0_1)">
<path fill-rule="evenodd" clip-rule="evenodd" d="M49 189.268C45.6862 189.268 43 186.582 43 183.268C43 179.954 45.6862 177.268 49 177.268C52.3138 177.268 55 179.954 55 183.268C55 186.582 52.3138 189.268 49 189.268Z" fill="#1BBEF6"/>
<path d="M43 183.268C43 186.582 45.6862 189.268 49 189.268C52.3138 189.268 55 186.582 55 183.268C55 179.954 52.3138 177.268 49 177.268C45.6862 177.268 43 179.954 43 183.268Z" stroke="white" stroke-width="3"/>
</g>
<path fill-rule="evenodd" clip-rule="evenodd" d="M122 214C71.19 214 30 172.81 30 122C30 71.19 71.19 30 122 30C172.81 30 214 71.19 214 122C214 172.81 172.81 214 122 214Z" fill="white"/>
<path d="M90.108 154.268V152.478L96.8295 145.12C97.6184 144.259 98.268 143.51 98.7784 142.873C99.2888 142.23 99.6667 141.627 99.9119 141.064C100.164 140.494 100.29 139.897 100.29 139.274C100.29 138.558 100.117 137.938 99.7727 137.414C99.4347 136.891 98.9706 136.486 98.3807 136.201C97.7907 135.916 97.1278 135.774 96.392 135.774C95.6098 135.774 94.9271 135.936 94.3438 136.261C93.767 136.579 93.3196 137.027 93.0014 137.603C92.6899 138.18 92.5341 138.856 92.5341 139.632H90.1875C90.1875 138.439 90.4626 137.391 91.0128 136.49C91.563 135.588 92.312 134.886 93.2599 134.382C94.2145 133.878 95.285 133.626 96.4716 133.626C97.6648 133.626 98.7221 133.878 99.6435 134.382C100.565 134.886 101.287 135.565 101.811 136.42C102.335 137.275 102.597 138.226 102.597 139.274C102.597 140.023 102.461 140.755 102.189 141.471C101.924 142.181 101.46 142.973 100.797 143.848C100.141 144.716 99.2292 145.777 98.0625 147.029L93.4886 151.922V152.081H102.955V154.268H90.108ZM113.703 154.547C112.205 154.547 110.929 154.139 109.875 153.324C108.821 152.502 108.016 151.312 107.459 149.754C106.902 148.19 106.624 146.3 106.624 144.086C106.624 141.886 106.902 140.006 107.459 138.449C108.022 136.884 108.831 135.691 109.885 134.869C110.946 134.04 112.218 133.626 113.703 133.626C115.188 133.626 116.457 134.04 117.511 134.869C118.572 135.691 119.381 136.884 119.938 138.449C120.501 140.006 120.783 141.886 120.783 144.086C120.783 146.3 120.504 148.19 119.947 149.754C119.391 151.312 118.585 152.502 117.531 153.324C116.477 154.139 115.201 154.547 113.703 154.547ZM113.703 152.359C115.188 152.359 116.341 151.643 117.163 150.211C117.985 148.779 118.396 146.738 118.396 144.086C118.396 142.323 118.207 140.822 117.83 139.582C117.458 138.342 116.921 137.398 116.219 136.748C115.523 136.099 114.684 135.774 113.703 135.774C112.232 135.774 111.081 136.5 110.253 137.951C109.424 139.396 109.01 141.441 109.01 144.086C109.01 145.85 109.196 147.348 109.567 148.581C109.938 149.814 110.472 150.752 111.168 151.395C111.87 152.038 112.715 152.359 113.703 152.359ZM128.817 142.893C127.975 142.893 127.206 142.688 126.51 142.277C125.821 141.866 125.27 141.315 124.859 140.626C124.448 139.93 124.243 139.161 124.243 138.319C124.243 137.477 124.448 136.712 124.859 136.022C125.27 135.326 125.821 134.773 126.51 134.362C127.206 133.951 127.975 133.745 128.817 133.745C129.659 133.745 130.424 133.951 131.114 134.362C131.81 134.773 132.363 135.326 132.774 136.022C133.185 136.712 133.391 137.477 133.391 138.319C133.391 139.161 133.185 139.93 132.774 140.626C132.363 141.315 131.81 141.866 131.114 142.277C130.424 142.688 129.659 142.893 128.817 142.893ZM128.817 140.904C129.294 140.904 129.728 140.788 130.119 140.556C130.51 140.324 130.822 140.013 131.054 139.622C131.286 139.231 131.402 138.797 131.402 138.319C131.402 137.842 131.286 137.408 131.054 137.017C130.822 136.626 130.51 136.314 130.119 136.082C129.728 135.85 129.294 135.734 128.817 135.734C128.339 135.734 127.905 135.85 127.514 136.082C127.123 136.314 126.812 136.626 126.58 137.017C126.348 137.408 126.232 137.842 126.232 138.319C126.232 138.797 126.348 139.231 126.58 139.622C126.812 140.013 127.123 140.324 127.514 140.556C127.905 140.788 128.339 140.904 128.817 140.904ZM153.692 140.268H151.226C151.08 139.559 150.825 138.936 150.461 138.399C150.103 137.862 149.665 137.411 149.148 137.047C148.638 136.675 148.071 136.397 147.448 136.211C146.825 136.026 146.175 135.933 145.499 135.933C144.266 135.933 143.149 136.244 142.148 136.868C141.154 137.491 140.362 138.409 139.772 139.622C139.188 140.835 138.897 142.323 138.897 144.086C138.897 145.85 139.188 147.338 139.772 148.551C140.362 149.764 141.154 150.682 142.148 151.305C143.149 151.928 144.266 152.24 145.499 152.24C146.175 152.24 146.825 152.147 147.448 151.961C148.071 151.776 148.638 151.501 149.148 151.136C149.665 150.765 150.103 150.311 150.461 149.774C150.825 149.23 151.08 148.607 151.226 147.904H153.692C153.507 148.945 153.168 149.877 152.678 150.699C152.187 151.52 151.578 152.22 150.848 152.797C150.119 153.367 149.301 153.801 148.392 154.099C147.491 154.397 146.526 154.547 145.499 154.547C143.762 154.547 142.218 154.122 140.865 153.274C139.513 152.425 138.449 151.219 137.674 149.654C136.898 148.09 136.51 146.234 136.51 144.086C136.51 141.939 136.898 140.083 137.674 138.518C138.449 136.954 139.513 135.747 140.865 134.899C142.218 134.05 143.762 133.626 145.499 133.626C146.526 133.626 147.491 133.775 148.392 134.074C149.301 134.372 150.119 134.809 150.848 135.386C151.578 135.956 152.187 136.652 152.678 137.474C153.168 138.289 153.507 139.221 153.692 140.268Z" fill="#060E23"/>
<defs>
<filter id="filter0_d_0_1" x="34.5" y="172.768" width="29" height="29" filterUnits="userSpaceOnUse" color-interpolation-filters="sRGB">
<feFlood flood-opacity="0" result="BackgroundImageFix"/>
<feColorMatrix in="SourceAlpha" type="matrix" values="0 0 0 0 0 0 0 0 0 0 0 0 0 0 0 0 0 0 127 0" result="hardAlpha"/>
<feOffset dy="4"/>
<feGaussianBlur stdDeviation="3.5"/>
<feColorMatrix type="matrix" values="0 0 0 0 0.0745098 0 0 0 0 0.227451 0 0 0 0 0.317647 0 0 0 0.5 0"/>
<feBlend mode="normal" in2="BackgroundImageFix" result="effect1_dropShadow_0_1"/>
<feBlend mode="normal" in="SourceGraphic" in2="effect1_dropShadow_0_1" result="shape"/>
</filter>
</defs>
</svg>
